<svg aria-hidden="true" style="position: absolute; width: 0; height: 0; overflow: hidden;" version="1.1" xmlns="http://www.w3.org/2000/svg" xmlns:xlink="http://www.w3.org/1999/xlink">
<defs>
<symbol id="icon-fb" viewBox="0 0 31 32">
<path d="M13.786 3.613c-3.543 0.429-6.843 2.422-8.893 5.372-1.109 1.578-1.891 3.465-2.201 5.508l-0.009 0.073c-0.132 0.864-0.132 2.771 0 3.635 0.571 3.727 2.568 6.885 5.65 8.934 1.33 0.896 2.895 1.562 4.579 1.899l0.082 0.014 0.371 0.069v-8.996h-3.226v-3.738h3.226v-1.627c0-2.223 0.090-2.853 0.536-3.777 0.609-1.26 1.65-2.036 3.124-2.332 0.517-0.104 2.401-0.081 3.302 0.041l0.691 0.092 0.014 1.596 0.013 1.595-1.139 0.019c-1.052 0.018-1.164 0.029-1.446 0.141-0.43 0.186-0.766 0.521-0.948 0.939l-0.005 0.012c-0.116 0.293-0.123 0.367-0.14 1.804l-0.017 1.498h1.769c1.233 0 1.77 0.017 1.77 0.055 0 0.076-0.506 3.423-0.539 3.567l-0.027 0.115h-2.967v8.996l0.371-0.069c2.524-0.471 4.977-1.801 6.799-3.685 1.529-1.574 2.658-3.544 3.219-5.742l0.019-0.089c0.298-1.199 0.367-1.786 0.366-3.149-0.001-0.888-0.024-1.357-0.091-1.792-0.453-2.957-1.809-5.59-3.886-7.551-2.042-1.925-4.561-3.112-7.287-3.432-0.806-0.093-2.289-0.092-3.082 0.004z"></path>
</symbol>
<symbol id="icon-inst" viewBox="0 0 31 32">
<path d="M9.093 4.895c-2.642 0.477-4.741 2.627-5.174 5.294-0.118 0.728-0.118 11.508 0 12.237 0.23 1.381 0.87 2.584 1.789 3.509l-0-0c0.928 0.922 2.127 1.572 3.468 1.818l0.041 0.006c0.564 0.102 11.724 0.102 12.288 0 0.957-0.177 1.808-0.533 2.554-1.033l-0.024 0.015c1.166-0.785 2.046-1.918 2.497-3.249l0.013-0.045c0.343-1.025 0.337-0.892 0.337-7.14 0-6.245 0.005-6.116-0.335-7.136-0.754-2.211-2.622-3.854-4.918-4.273l-0.039-0.006c-0.652-0.114-11.863-0.111-12.494 0.003zM21.427 7.139c1.496 0.385 2.658 1.521 3.074 2.971l0.007 0.030c0.088 0.311 0.093 0.668 0.093 6.167 0 6.588 0.031 6.067-0.412 6.963-0.53 1.073-1.467 1.843-2.66 2.186l-0.41 0.118h-11.52l-0.41-0.118c-1.201-0.347-2.127-1.108-2.66-2.186-0.44-0.892-0.407-0.356-0.425-6.784-0.014-5.057-0.006-5.755 0.065-6.112 0.27-1.318 1.138-2.389 2.303-2.932l0.025-0.011c0.411-0.19 0.887-0.326 1.387-0.381l0.021-0.002c0.113-0.012 2.67-0.015 5.683-0.012 5.089 0.008 5.504 0.015 5.837 0.101zM20.913 9.078c-1.065 0.509-0.951 2.043 0.177 2.373 0.929 0.271 1.819-0.573 1.594-1.513-0.136-0.563-0.576-0.925-1.17-0.963-0.284-0.018-0.385 0-0.6 0.102zM14.636 10.601c-0.655 0.085-1.248 0.272-1.791 0.544l0.032-0.015c-3.658 1.756-4.404 6.588-1.45 9.376 0.695 0.648 1.551 1.132 2.501 1.385l0.041 0.009c0.444 0.12 0.588 0.133 1.391 0.133s0.947-0.013 1.391-0.133c1.695-0.456 3.035-1.548 3.78-3.077 0.369-0.737 0.585-1.605 0.585-2.524 0-1.29-0.426-2.481-1.145-3.439l0.011 0.015c-1.235-1.66-3.256-2.519-5.347-2.275zM16.102 12.877c0.197 0.041 0.575 0.182 0.84 0.312 0.864 0.435 1.51 1.197 1.781 2.12l0.006 0.024c0.148 0.503 0.166 1.358 0.040 1.844-0.301 1.149-1.199 2.098-2.359 2.49-0.307 0.104-0.458 0.122-1.050 0.122s-0.742-0.018-1.050-0.122c-0.567-0.181-1.050-0.491-1.433-0.896l-0.001-0.002c-0.429-0.429-0.75-0.966-0.918-1.567l-0.006-0.025c-0.106-0.407-0.106-1.334 0-1.741 0.271-0.988 0.932-1.787 1.803-2.237l0.020-0.009c0.266-0.132 0.635-0.271 0.818-0.311 0.229-0.045 0.493-0.071 0.762-0.071 0.265 0 0.523 0.025 0.774 0.073l-0.026-0.004z"></path>
</symbol>
<symbol id="icon-link" viewBox="0 0 31 32">
<path d="M5.065 4.933c-0.572 0.234-0.955 0.646-1.125 1.207-0.1 0.332-0.101 0.476-0.088 10.295l0.014 9.958 0.166 0.342c0.269 0.545 0.771 0.94 1.373 1.058l0.012 0.002c0.385 0.082 19.501 0.082 19.886 0 0.614-0.12 1.116-0.515 1.38-1.049l0.005-0.011 0.166-0.342v-20.122l-0.12-0.297c-0.155-0.384-0.568-0.812-0.965-0.997l-0.297-0.14-20.122-0.023-0.285 0.118zM9.38 8.045c0.735 0.156 1.265 0.649 1.446 1.349 0.355 1.361-0.617 2.555-2.012 2.474-0.716-0.035-1.325-0.464-1.616-1.074l-0.005-0.011c-0.187-0.383-0.234-0.992-0.11-1.42 0.279-0.963 1.276-1.535 2.296-1.318zM20.531 13.288c1.157 0.358 2.121 1.251 2.533 2.346 0.353 0.94 0.385 1.377 0.385 5.344v3.444h-3.363l-0.032-3.085c-0.027-2.506-0.047-3.165-0.114-3.512-0.151-0.791-0.443-1.226-0.997-1.487-0.25-0.118-0.346-0.133-0.846-0.133-0.534 0-0.582 0.009-0.904 0.168-0.388 0.191-0.832 0.631-1.014 1.006-0.271 0.562-0.27 0.547-0.294 3.908l-0.023 3.136h-3.37v-10.957h3.223l0.014 0.744 0.014 0.742 0.23-0.291c0.497-0.627 1.35-1.17 2.203-1.4 0.332-0.090 0.495-0.101 1.228-0.082 0.599 0.015 0.927 0.047 1.126 0.109zM10.65 18.944v5.478h-3.379v-10.957h3.379v5.478z"></path>
</symbol>
<symbol id="icon-youtube" viewBox="0 0 31 32">
<path d="M10.573 7.118c-2.364 0.086-4.204 0.229-4.992 0.388-0.864 0.192-1.587 0.696-2.061 1.384l-0.007 0.011c-0.434 0.653-0.639 1.535-0.833 3.592-0.129 1.363-0.131 5.748-0.001 7.117 0.232 2.445 0.458 3.183 1.213 3.946s1.353 0.961 3.451 1.146c4.38 0.384 13.236 0.357 16.863-0.052 1.34-0.152 1.903-0.376 2.551-1.020 0.622-0.616 0.845-1.1 1.042-2.253 0.563-3.311 0.442-9.734-0.221-11.695-0.35-1.007-1.153-1.775-2.158-2.069l-0.023-0.006c-0.554-0.163-2.074-0.315-4.403-0.443-1.234-0.067-8.899-0.1-10.419-0.045zM16.474 14.285c1.636 0.943 2.958 1.731 2.939 1.748-0.046 0.047-6.55 3.781-6.584 3.781-0.015 0-0.028-1.718-0.028-3.818v-3.818l0.349 0.196c0.193 0.108 1.688 0.968 3.324 1.911z"></path>
</symbol>
<symbol id="icon-company-logo" viewBox="0 0 73 32">
<path d="M12.776 2.906c0.323 0.16 0.686 0.621 0.929 0.893 2.090 2.335 3.187 5.309 2.993 8.44-0.188 3.030-1.684 5.72-3.93 7.708-0.425-0.291-0.814-0.704-1.155-1.089-1.908-2.157-2.953-5.189-2.771-8.065 0.188-2.965 1.704-5.932 3.933-7.887z"></path>
<path d="M21.672 7.146c0.006 0.011 0.013 0.021 0.019 0.032 0.119 0.242 0.153 0.627 0.184 0.895 0.157 1.398 0.027 2.8-0.465 4.124-1.229 3.308-4.069 5.742-7.209 7.186-0.037-0-0.012 0.003-0.069-0.030 0.192-0.314 0.46-0.595 0.681-0.889 0.339-0.46 0.645-0.943 0.918-1.445 0.962-1.77 1.422-3.716 1.42-5.724-0-0.57-0.013-1.14-0.178-1.69 0.294-0.327 0.655-0.602 1.006-0.867 1.129-0.854 2.266-1.449 3.693-1.591z"></path>
<path d="M3.84 7.16c0.169 0.007 0.34 0.029 0.508 0.054 1.29 0.196 2.418 0.883 3.426 1.678 0.281 0.222 0.589 0.453 0.801 0.745-0.536 2.752 0.175 5.639 1.598 8.019 0.227 0.378 0.473 0.745 0.736 1.1 0.126 0.169 0.275 0.322 0.388 0.5l-0.040 0.052c-2.347-1.003-4.545-2.779-5.959-4.902-1.484-2.227-1.974-4.626-1.457-7.245z"></path>
<path d="M23.968 13.303c0.374-0.045 1.213-0.092 1.526 0.108 0.016 0.047 0.021 0.052 0.022 0.109 0.006 0.22-0.137 0.548-0.212 0.753-0.498 1.413-1.35 2.675-2.475 3.665-2.202 1.947-5.056 2.645-7.938 2.46-0.544-0.057-1.106-0.095-1.629-0.262 2.415-0.743 4.712-2.26 6.377-4.155 0.409-0.466 0.709-1.007 1.107-1.475 0.756-0.889 2.126-1.124 3.221-1.202z"></path>
<path d="M0.897 13.376c1.125-0.133 2.652 0.053 3.58 0.753 0.551 0.417 0.883 1.19 1.339 1.717 1.424 1.649 3.208 2.95 5.215 3.801 0.427 0.183 0.867 0.374 1.319 0.485l-0.903 0.151c-2.629 0.378-5.354-0.091-7.604-1.554-1.532-0.996-2.611-2.363-3.245-4.067-0.093-0.25-0.232-0.521-0.28-0.782-0.028-0.152-0.003-0.252 0.086-0.381 0.141-0.104 0.325-0.103 0.495-0.123z"></path>
<path d="M46.817 11.104c0.876-0.007 1.832-0.086 2.698 0.040 0.557 0.081 1.122 0.28 1.461 0.758 0.249 0.352 0.33 0.845 0.253 1.265-0.094 0.514-0.42 0.811-0.833 1.088 0.099 0.042 0.197 0.087 0.291 0.138 0.364 0.197 0.622 0.539 0.729 0.938 0.146 0.545 0.029 1.105-0.242 1.589-0.061 0.093-0.133 0.175-0.214 0.251-0.832 0.789-2.655 0.636-3.73 0.626-0.207-0.002-0.479 0.017-0.633-0.14-0.037-0.079-0.052-0.131-0.057-0.22-0.071-1.154-0.006-2.352-0.007-3.51-0-0.82-0.083-1.888 0.024-2.681 0.083-0.103 0.135-0.103 0.259-0.141zM49.753 15.163c-0.464-0.303-1.246-0.215-1.785-0.214l0.002 1.496c0.597 0.004 1.295 0.096 1.824-0.224 0.125-0.184 0.25-0.457 0.214-0.686-0.026-0.166-0.117-0.281-0.255-0.372zM49.531 12.504c-0.443-0.266-1.064-0.199-1.562-0.196v1.436c0.534 0.004 1.172 0.083 1.639-0.219 0.126-0.18 0.247-0.438 0.199-0.665-0.035-0.166-0.133-0.271-0.275-0.356z"></path>
<path d="M38.646 12.659c0.134-0.011 0.268-0.004 0.399 0.021 0.401 0.080 0.596 0.375 0.811 0.69 0.012-0.11 0.021-0.229 0.046-0.336 0.027-0.112 0.088-0.181 0.188-0.235 0.162-0.086 0.51-0.092 0.679-0.029 0.124 0.046 0.261 0.153 0.304 0.283 0.126 0.383 0.077 4.133 0.004 4.645-0.048 0.338-0.153 0.671-0.323 0.967-0.275 0.478-0.742 0.789-1.268 0.932-0.741 0.2-1.583 0.136-2.244-0.262-0.295-0.177-0.433-0.406-0.511-0.735 0.025-0.119 0.054-0.235 0.156-0.312 0.331-0.25 1.046 0.17 1.414 0.238 0.316 0.059 0.658 0.027 0.921-0.172 0.434-0.327 0.505-0.931 0.579-1.43-0.29 0.31-0.566 0.56-0.994 0.665-0.464 0.114-0.972 0.036-1.371-0.229-0.525-0.348-0.818-0.945-0.926-1.551-0.131-0.738-0.017-1.621 0.431-2.239 0.427-0.589 1.014-0.806 1.704-0.911zM38.725 13.789c-0.345 0.13-0.536 0.29-0.684 0.634-0.182 0.423-0.188 1.036-0.009 1.46 0.094 0.224 0.283 0.46 0.52 0.54 0.157 0.053 0.346 0.030 0.508 0.019 0.284-0.102 0.446-0.221 0.581-0.497 0.208-0.424 0.214-1.022 0.056-1.465-0.092-0.257-0.274-0.51-0.531-0.622-0.132-0.057-0.298-0.076-0.44-0.068z"></path>
<path d="M67.333 12.698c0.339-0.045 0.673-0.030 0.993 0.103 0.442 0.183 0.672 0.517 0.847 0.943 0.090-0.225 0.189-0.452 0.348-0.638 0.251-0.296 0.58-0.413 0.961-0.428 0.439-0.017 0.888 0.084 1.21 0.399 0.211 0.207 0.341 0.485 0.412 0.769 0.188 0.758 0.083 2.385 0.086 3.241 0 0.131 0.017 0.545-0.086 0.623-0.174 0.131-0.792 0.102-1.009 0.072-0.127-0.018-0.205-0.086-0.257-0.201-0.081-0.177-0.038-0.493-0.035-0.689 0.008-0.635 0.165-2.39-0.211-2.853-0.086-0.106-0.209-0.173-0.346-0.182-0.202-0.014-0.46 0.056-0.607 0.2-0.521 0.51-0.348 2.324-0.344 3.038 0.001 0.144 0.006 0.302-0.011 0.444-0.008 0.063-0.030 0.136-0.088 0.169-0.222 0.127-0.762 0.108-1.007 0.051-0.128-0.030-0.182-0.073-0.228-0.197-0.075-0.205-0.033-0.509-0.029-0.726 0.011-0.636 0.162-2.218-0.161-2.695-0.097-0.143-0.242-0.23-0.412-0.258-0.193-0.032-0.395-0.006-0.552 0.118-0.633 0.5-0.46 2.251-0.457 2.975 0.001 0.174 0.036 0.423-0.004 0.586-0.016 0.068-0.036 0.109-0.094 0.147-0.204 0.134-0.755 0.105-0.999 0.057-0.102-0.020-0.168-0.083-0.212-0.176-0.062-0.132-0.081-3.938-0.058-4.315 0.006-0.105 0.028-0.217 0.076-0.312 0.062-0.121 0.166-0.2 0.293-0.241 0.301-0.097 0.677 0.010 0.943 0.158 0.064 0.238 0.018 0.549 0.008 0.797 0.031-0.063 0.063-0.126 0.095-0.189 0.235-0.454 0.456-0.639 0.936-0.792z"></path>
<path d="M61.856 12.718c1.402-0.029 2.567 1.075 2.613 2.476s-1.043 2.579-2.443 2.643c-0.921 0.042-1.795-0.415-2.285-1.196s-0.523-1.766-0.085-2.578c0.438-0.812 1.279-1.326 2.201-1.345zM61.684 13.832c-0.377 0.167-0.581 0.359-0.727 0.753-0.174 0.47-0.146 1.128 0.077 1.577 0.121 0.242 0.308 0.439 0.568 0.525 0.178 0.060 0.345 0.069 0.527 0.026 0.361-0.151 0.577-0.344 0.725-0.714 0.186-0.464 0.184-1.083-0.030-1.538-0.134-0.284-0.371-0.519-0.676-0.609-0.149-0.044-0.311-0.034-0.464-0.020z"></path>
<path d="M33.474 12.726c1.411-0.064 2.606 1.027 2.672 2.438s-1.023 2.609-2.433 2.677c-1.413 0.068-2.614-1.024-2.68-2.438s1.027-2.613 2.441-2.677zM33.873 13.866c-0.163-0.056-0.332-0.055-0.501-0.034-0.378 0.187-0.594 0.382-0.738 0.795-0.163 0.468-0.139 1.135 0.096 1.574 0.128 0.24 0.322 0.415 0.584 0.495 0.161 0.049 0.343 0.054 0.507 0.014 0.36-0.15 0.571-0.343 0.716-0.713 0.184-0.468 0.169-1.086-0.044-1.544-0.125-0.269-0.337-0.491-0.621-0.588z"></path>
<path d="M56.119 12.753c0.909-0.147 1.825 0.206 2.402 0.923s0.723 1.689 0.384 2.545c-0.34 0.855-1.112 1.463-2.024 1.59-1.388 0.194-2.674-0.766-2.883-2.152s0.737-2.682 2.121-2.906zM56.328 13.829c-0.379 0.161-0.597 0.345-0.751 0.737-0.18 0.461-0.162 1.098 0.051 1.546 0.129 0.27 0.347 0.492 0.636 0.584 0.145 0.046 0.309 0.046 0.458 0.027 0.378-0.16 0.598-0.338 0.755-0.731 0.182-0.457 0.179-1.087-0.033-1.533-0.126-0.265-0.34-0.488-0.621-0.588-0.158-0.056-0.33-0.055-0.495-0.041z"></path>
<path d="M43.332 12.701c0.32-0.038 0.629-0.032 0.944 0.041 0.479 0.111 0.881 0.39 1.125 0.819 0.131 0.23 0.206 0.483 0.242 0.744 0.056 0.404 0.088 2.957-0.004 3.308-0.077 0.098-0.154 0.134-0.275 0.16-0.205 0.043-0.654 0.070-0.819-0.084-0.145-0.134-0.115-0.413-0.117-0.593-0.24 0.355-0.482 0.641-0.918 0.75-0.488 0.121-0.94-0.021-1.36-0.264-0.179-0.165-0.315-0.334-0.392-0.568-0.13-0.395-0.088-0.927 0.114-1.29 0.49-0.882 1.645-0.829 2.489-1.078l0.052-0.016c-0.034-0.105-0.067-0.213-0.111-0.315-0.478-1.102-1.669 0.102-2.245-0.201-0.116-0.061-0.2-0.185-0.23-0.311-0.039-0.168 0.006-0.276 0.097-0.415 0.309-0.472 0.889-0.591 1.405-0.689zM44.358 15.645c-0.351 0.096-1.009 0.203-1.219 0.521-0.068 0.104-0.074 0.24-0.030 0.355 0.031 0.081 0.092 0.151 0.146 0.218 0.363 0.024 0.59-0.002 0.867-0.254 0.168-0.153 0.322-0.4 0.314-0.637-0.002-0.059-0.019-0.119-0.032-0.176l-0.047-0.027z"></path>
<path d="M29.015 13.649c0.126-0.399 1.104-2.311 1.416-2.49 0.162-0.093 1.026-0.107 1.2-0.028 0.111 0.051 0.123 0.081 0.174 0.185-0.089 0.495-1.182 2.155-1.506 2.697l-0.568 0.945c0.002 0.568 0.102 2.301-0.096 2.712-0.070 0.053-0.119 0.083-0.206 0.103-0.267 0.062-0.797 0.044-1.033-0.104-0.182-0.24-0.087-2.23-0.087-2.67-0.29-0.464-2.165-3.457-2.115-3.743 0.062-0.089 0.102-0.111 0.202-0.151 0.316-0.009 0.959-0.093 1.221 0.066 0.339 0.206 1.271 2.058 1.397 2.478z"></path>
<path d="M52.226 11.104c0.332-0.009 0.874-0.091 1.16 0.080 0.080 0.546 0.049 1.124 0.050 1.675l0.003 2.551c0 0.666 0.073 1.468-0.013 2.122-0.017 0.13-0.097 0.173-0.192 0.247-0.346 0.011-0.877 0.097-1.161-0.128-0.067-0.255-0.109-6.145-0.045-6.378 0.031-0.11 0.103-0.123 0.196-0.17z"></path>
<path d="M12.912 20.312c0.457 0.163 0.918 0.293 1.398 0.371 0.827 0.134 1.787 0.095 2.53 0.525 0.549 0.318 1.11 1.063 1.265 1.681 0.028 0.113 0.020 0.123-0.038 0.217-0.574 0.207-1.132 0.158-1.703-0.029-1.376-0.45-2.778-1.453-3.452-2.764z"></path>
<path d="M12.653 20.314c0.029-0.003 0.057 0.013 0.085 0.021-0.001 0.013-0.001 0.027-0.004 0.040-0.071 0.293-1.203 1.487-1.465 1.694-0.904 0.714-2.246 1.28-3.412 1.141-0.031-0.007-0.074-0.015-0.103-0.028-0.063-0.029-0.103-0.052-0.119-0.12-0.044-0.182 0.059-0.394 0.142-0.552 0.267-0.511 0.685-1.11 1.209-1.386 0.646-0.34 1.6-0.338 2.317-0.466 0.46-0.082 0.903-0.206 1.349-0.343z"></path>
</symbol>
<symbol id="icon-menu" viewBox="0 0 32 32">
            <path
                d="M5.333 8h21.333v2.667H5.333V8zm0 6.667h21.333v2.667H5.333v-2.667zm0 6.666h21.333V24H5.333v-2.667z" />
        </symbol>
        <symbol id="icon-close" viewBox="0 0 32 32">
            <path
                d="m21.589 8.459-5.657 5.656-5.656-5.656-1.885 1.885L14.047 16l-5.656 5.656 1.885 1.885 5.656-5.656 5.657 5.656 1.885-1.885L17.818 16l5.656-5.656-1.885-1.885z" />
        </symbol>
        <symbol id="icon-check" viewBox="0 0 31 32">
<path d="M26.045 10.322 12.477 23.89a.64.64 0 0 1-.908 0L4.67 16.991a.64.64 0 0 1 0-.908l.896-.896a.64.64 0 0 1 .908 0l5.542 5.542L24.24 8.505a.654.654 0 0 1 .909 0l.896.909a.64.64 0 0 1 0 .908z"/>
</symbol>
</defs>
</svg>
