<svg aria-hidden="true" style="position: absolute; width: 0; height: 0; overflow: hidden;" version="1.1" xmlns="http://www.w3.org/2000/svg" xmlns:xlink="http://www.w3.org/1999/xlink">
<defs>

<symbol id="icon-youtube" viewBox="0 0 45 32">
<path d="M42.865 5.963c-0.243-0.902-0.718-1.724-1.377-2.385s-1.481-1.138-2.382-1.383c-3.341-0.917-16.706-0.932-16.706-0.932s-13.363-0.015-16.706 0.862c-0.9 0.256-1.72 0.74-2.38 1.404s-1.138 1.487-1.388 2.389c-0.881 3.341-0.89 10.27-0.89 10.27s-0.009 6.963 0.866 10.27c0.491 1.828 1.931 3.273 3.761 3.765 3.375 0.917 16.704 0.932 16.704 0.932s13.365 0.015 16.706-0.86c0.901-0.245 1.723-0.72 2.384-1.38s1.139-1.481 1.385-2.381c0.883-3.339 0.89-10.266 0.89-10.266s0.043-6.965-0.868-10.306zM18.125 22.608l0.011-12.8 11.108 6.411-11.119 6.389z"></path>
</symbol>
<symbol id="icon-link" viewBox="0 0 30 32">
<path d="M2.526 0.409c-1.395 0-2.526 1.131-2.526 2.526v25.263c0 1.395 1.131 2.526 2.526 2.526h25.263c1.395 0 2.526-1.131 2.526-2.526v-25.263c0-1.395-1.131-2.526-2.526-2.526h-25.263zM9.298 7.15c0.009 1.611-1.196 2.603-2.627 2.596-1.348-0.007-2.522-1.080-2.515-2.593 0.007-1.423 1.132-2.567 2.593-2.534 1.483 0.033 2.558 1.12 2.548 2.532zM15.629 11.797h-4.247v14.417h4.486v-0.336c0-0.64-0.001-1.28-0.001-1.92-0.001-1.707-0.003-3.417 0.006-5.124 0.002-0.414 0.021-0.845 0.128-1.241 0.4-1.478 1.729-2.432 3.212-2.198 0.952 0.149 1.582 0.701 1.847 1.599 0.164 0.561 0.237 1.165 0.244 1.75 0.019 1.764 0.017 3.529 0.014 5.293-0.001 0.623-0.002 1.246-0.002 1.869v0.306h4.5v-0.346c0-0.761-0-1.522-0.001-2.283-0.001-1.902-0.002-3.805 0.003-5.708 0.002-0.86-0.090-1.708-0.301-2.539-0.315-1.236-0.966-2.26-2.025-2.998-0.751-0.526-1.575-0.864-2.496-0.902-0.105-0.004-0.211-0.010-0.317-0.016-0.471-0.025-0.95-0.051-1.4 0.040-1.288 0.258-2.42 0.848-3.275 1.888-0.099 0.119-0.197 0.24-0.342 0.421l-0.033 0.041v-2.011zM4.516 26.218h4.464v-14.412h-4.464v14.412z"></path>
</symbol>
<symbol id="icon-inst" viewBox="0 0 30 32">
<path d="M21.895 0.409h-13.474c-4.651 0-8.421 3.77-8.421 8.421v13.474c0 4.651 3.77 8.421 8.421 8.421h13.474c4.651 0 8.421-3.77 8.421-8.421v-13.474c0-4.651-3.77-8.421-8.421-8.421zM27.368 22.303c-0.009 3.019-2.455 5.464-5.474 5.474h-13.474c-3.019-0.009-5.464-2.455-5.474-5.474v-13.474c0.009-3.019 2.454-5.464 5.474-5.474h13.474c3.019 0.009 5.464 2.454 5.474 5.474v13.474zM23.158 9.251c0.93 0 1.684-0.754 1.684-1.684s-0.754-1.684-1.684-1.684c-0.93 0-1.684 0.754-1.684 1.684s0.754 1.684 1.684 1.684zM15.158 7.988c-4.186 0-7.579 3.393-7.579 7.579s3.393 7.579 7.579 7.579c4.186 0 7.579-3.393 7.579-7.579 0.005-2.011-0.793-3.942-2.215-5.364s-3.353-2.219-5.364-2.215zM10.526 15.567c0 2.558 2.074 4.632 4.632 4.632s4.632-2.074 4.632-4.632c0-2.558-2.074-4.632-4.632-4.632s-4.632 2.074-4.632 4.632z"></path>
</symbol>
<symbol id="icon-fb" viewBox="0 0 30 32">
<path d="M30.476 15.701c0-8.467-6.822-15.331-15.238-15.331s-15.238 6.864-15.238 15.331c0 7.652 5.572 13.995 12.857 15.145v-10.713h-3.869v-4.432h3.869v-3.378c0-3.842 2.275-5.965 5.756-5.965 1.667 0 3.411 0.299 3.411 0.299v3.773h-1.921c-1.893 0-2.483 1.182-2.483 2.394v2.876h4.226l-0.675 4.432h-3.551v10.713c7.285-1.15 12.857-7.493 12.857-15.145z"></path>
</symbol>
<symbol id="icon-check" viewBox="0 0 31 32">
<path d="M26.045 10.322 12.477 23.89a.64.64 0 0 1-.908 0L4.67 16.991a.64.64 0 0 1 0-.908l.896-.896a.64.64 0 0 1 .908 0l5.542 5.542L24.24 8.505a.654.654 0 0 1 .909 0l.896.909a.64.64 0 0 1 0 .908z"/>
</symbol>
<symbol id="icon-company-logo" viewBox="0 0 73 32">
<path d="M12.776 2.906c0.323 0.16 0.686 0.621 0.929 0.893 2.090 2.335 3.187 5.309 2.993 8.44-0.188 3.030-1.684 5.72-3.93 7.708-0.425-0.291-0.814-0.704-1.155-1.089-1.908-2.157-2.953-5.189-2.771-8.065 0.188-2.965 1.704-5.932 3.933-7.887z"></path>
<path d="M21.672 7.146c0.006 0.011 0.013 0.021 0.019 0.032 0.119 0.242 0.153 0.627 0.184 0.895 0.157 1.398 0.027 2.8-0.465 4.124-1.229 3.308-4.069 5.742-7.209 7.186-0.037-0-0.012 0.003-0.069-0.030 0.192-0.314 0.46-0.595 0.681-0.889 0.339-0.46 0.645-0.943 0.918-1.445 0.962-1.77 1.422-3.716 1.42-5.724-0-0.57-0.013-1.14-0.178-1.69 0.294-0.327 0.655-0.602 1.006-0.867 1.129-0.854 2.266-1.449 3.693-1.591z"></path>
<path d="M3.84 7.16c0.169 0.007 0.34 0.029 0.508 0.054 1.29 0.196 2.418 0.883 3.426 1.678 0.281 0.222 0.589 0.453 0.801 0.745-0.536 2.752 0.175 5.639 1.598 8.019 0.227 0.378 0.473 0.745 0.736 1.1 0.126 0.169 0.275 0.322 0.388 0.5l-0.040 0.052c-2.347-1.003-4.545-2.779-5.959-4.902-1.484-2.227-1.974-4.626-1.457-7.245z"></path>
<path d="M23.968 13.303c0.374-0.045 1.213-0.092 1.526 0.108 0.016 0.047 0.021 0.052 0.022 0.109 0.006 0.22-0.137 0.548-0.212 0.753-0.498 1.413-1.35 2.675-2.475 3.665-2.202 1.947-5.056 2.645-7.938 2.46-0.544-0.057-1.106-0.095-1.629-0.262 2.415-0.743 4.712-2.26 6.377-4.155 0.409-0.466 0.709-1.007 1.107-1.475 0.756-0.889 2.126-1.124 3.221-1.202z"></path>
<path d="M0.897 13.376c1.125-0.133 2.652 0.053 3.58 0.753 0.551 0.417 0.883 1.19 1.339 1.717 1.424 1.649 3.208 2.95 5.215 3.801 0.427 0.183 0.867 0.374 1.319 0.485l-0.903 0.151c-2.629 0.378-5.354-0.091-7.604-1.554-1.532-0.996-2.611-2.363-3.245-4.067-0.093-0.25-0.232-0.521-0.28-0.782-0.028-0.152-0.003-0.252 0.086-0.381 0.141-0.104 0.325-0.103 0.495-0.123z"></path>
<path d="M46.817 11.104c0.876-0.007 1.832-0.086 2.698 0.040 0.557 0.081 1.122 0.28 1.461 0.758 0.249 0.352 0.33 0.845 0.253 1.265-0.094 0.514-0.42 0.811-0.833 1.088 0.099 0.042 0.197 0.087 0.291 0.138 0.364 0.197 0.622 0.539 0.729 0.938 0.146 0.545 0.029 1.105-0.242 1.589-0.061 0.093-0.133 0.175-0.214 0.251-0.832 0.789-2.655 0.636-3.73 0.626-0.207-0.002-0.479 0.017-0.633-0.14-0.037-0.079-0.052-0.131-0.057-0.22-0.071-1.154-0.006-2.352-0.007-3.51-0-0.82-0.083-1.888 0.024-2.681 0.083-0.103 0.135-0.103 0.259-0.141zM49.753 15.163c-0.464-0.303-1.246-0.215-1.785-0.214l0.002 1.496c0.597 0.004 1.295 0.096 1.824-0.224 0.125-0.184 0.25-0.457 0.214-0.686-0.026-0.166-0.117-0.281-0.255-0.372zM49.531 12.504c-0.443-0.266-1.064-0.199-1.562-0.196v1.436c0.534 0.004 1.172 0.083 1.639-0.219 0.126-0.18 0.247-0.438 0.199-0.665-0.035-0.166-0.133-0.271-0.275-0.356z"></path>
<path d="M38.646 12.659c0.134-0.011 0.268-0.004 0.399 0.021 0.401 0.080 0.596 0.375 0.811 0.69 0.012-0.11 0.021-0.229 0.046-0.336 0.027-0.112 0.088-0.181 0.188-0.235 0.162-0.086 0.51-0.092 0.679-0.029 0.124 0.046 0.261 0.153 0.304 0.283 0.126 0.383 0.077 4.133 0.004 4.645-0.048 0.338-0.153 0.671-0.323 0.967-0.275 0.478-0.742 0.789-1.268 0.932-0.741 0.2-1.583 0.136-2.244-0.262-0.295-0.177-0.433-0.406-0.511-0.735 0.025-0.119 0.054-0.235 0.156-0.312 0.331-0.25 1.046 0.17 1.414 0.238 0.316 0.059 0.658 0.027 0.921-0.172 0.434-0.327 0.505-0.931 0.579-1.43-0.29 0.31-0.566 0.56-0.994 0.665-0.464 0.114-0.972 0.036-1.371-0.229-0.525-0.348-0.818-0.945-0.926-1.551-0.131-0.738-0.017-1.621 0.431-2.239 0.427-0.589 1.014-0.806 1.704-0.911zM38.725 13.789c-0.345 0.13-0.536 0.29-0.684 0.634-0.182 0.423-0.188 1.036-0.009 1.46 0.094 0.224 0.283 0.46 0.52 0.54 0.157 0.053 0.346 0.030 0.508 0.019 0.284-0.102 0.446-0.221 0.581-0.497 0.208-0.424 0.214-1.022 0.056-1.465-0.092-0.257-0.274-0.51-0.531-0.622-0.132-0.057-0.298-0.076-0.44-0.068z"></path>
<path d="M67.333 12.698c0.339-0.045 0.673-0.030 0.993 0.103 0.442 0.183 0.672 0.517 0.847 0.943 0.090-0.225 0.189-0.452 0.348-0.638 0.251-0.296 0.58-0.413 0.961-0.428 0.439-0.017 0.888 0.084 1.21 0.399 0.211 0.207 0.341 0.485 0.412 0.769 0.188 0.758 0.083 2.385 0.086 3.241 0 0.131 0.017 0.545-0.086 0.623-0.174 0.131-0.792 0.102-1.009 0.072-0.127-0.018-0.205-0.086-0.257-0.201-0.081-0.177-0.038-0.493-0.035-0.689 0.008-0.635 0.165-2.39-0.211-2.853-0.086-0.106-0.209-0.173-0.346-0.182-0.202-0.014-0.46 0.056-0.607 0.2-0.521 0.51-0.348 2.324-0.344 3.038 0.001 0.144 0.006 0.302-0.011 0.444-0.008 0.063-0.030 0.136-0.088 0.169-0.222 0.127-0.762 0.108-1.007 0.051-0.128-0.030-0.182-0.073-0.228-0.197-0.075-0.205-0.033-0.509-0.029-0.726 0.011-0.636 0.162-2.218-0.161-2.695-0.097-0.143-0.242-0.23-0.412-0.258-0.193-0.032-0.395-0.006-0.552 0.118-0.633 0.5-0.46 2.251-0.457 2.975 0.001 0.174 0.036 0.423-0.004 0.586-0.016 0.068-0.036 0.109-0.094 0.147-0.204 0.134-0.755 0.105-0.999 0.057-0.102-0.020-0.168-0.083-0.212-0.176-0.062-0.132-0.081-3.938-0.058-4.315 0.006-0.105 0.028-0.217 0.076-0.312 0.062-0.121 0.166-0.2 0.293-0.241 0.301-0.097 0.677 0.010 0.943 0.158 0.064 0.238 0.018 0.549 0.008 0.797 0.031-0.063 0.063-0.126 0.095-0.189 0.235-0.454 0.456-0.639 0.936-0.792z"></path>
<path d="M61.856 12.718c1.402-0.029 2.567 1.075 2.613 2.476s-1.043 2.579-2.443 2.643c-0.921 0.042-1.795-0.415-2.285-1.196s-0.523-1.766-0.085-2.578c0.438-0.812 1.279-1.326 2.201-1.345zM61.684 13.832c-0.377 0.167-0.581 0.359-0.727 0.753-0.174 0.47-0.146 1.128 0.077 1.577 0.121 0.242 0.308 0.439 0.568 0.525 0.178 0.060 0.345 0.069 0.527 0.026 0.361-0.151 0.577-0.344 0.725-0.714 0.186-0.464 0.184-1.083-0.030-1.538-0.134-0.284-0.371-0.519-0.676-0.609-0.149-0.044-0.311-0.034-0.464-0.020z"></path>
<path d="M33.474 12.726c1.411-0.064 2.606 1.027 2.672 2.438s-1.023 2.609-2.433 2.677c-1.413 0.068-2.614-1.024-2.68-2.438s1.027-2.613 2.441-2.677zM33.873 13.866c-0.163-0.056-0.332-0.055-0.501-0.034-0.378 0.187-0.594 0.382-0.738 0.795-0.163 0.468-0.139 1.135 0.096 1.574 0.128 0.24 0.322 0.415 0.584 0.495 0.161 0.049 0.343 0.054 0.507 0.014 0.36-0.15 0.571-0.343 0.716-0.713 0.184-0.468 0.169-1.086-0.044-1.544-0.125-0.269-0.337-0.491-0.621-0.588z"></path>
<path d="M56.119 12.753c0.909-0.147 1.825 0.206 2.402 0.923s0.723 1.689 0.384 2.545c-0.34 0.855-1.112 1.463-2.024 1.59-1.388 0.194-2.674-0.766-2.883-2.152s0.737-2.682 2.121-2.906zM56.328 13.829c-0.379 0.161-0.597 0.345-0.751 0.737-0.18 0.461-0.162 1.098 0.051 1.546 0.129 0.27 0.347 0.492 0.636 0.584 0.145 0.046 0.309 0.046 0.458 0.027 0.378-0.16 0.598-0.338 0.755-0.731 0.182-0.457 0.179-1.087-0.033-1.533-0.126-0.265-0.34-0.488-0.621-0.588-0.158-0.056-0.33-0.055-0.495-0.041z"></path>
<path d="M43.332 12.701c0.32-0.038 0.629-0.032 0.944 0.041 0.479 0.111 0.881 0.39 1.125 0.819 0.131 0.23 0.206 0.483 0.242 0.744 0.056 0.404 0.088 2.957-0.004 3.308-0.077 0.098-0.154 0.134-0.275 0.16-0.205 0.043-0.654 0.070-0.819-0.084-0.145-0.134-0.115-0.413-0.117-0.593-0.24 0.355-0.482 0.641-0.918 0.75-0.488 0.121-0.94-0.021-1.36-0.264-0.179-0.165-0.315-0.334-0.392-0.568-0.13-0.395-0.088-0.927 0.114-1.29 0.49-0.882 1.645-0.829 2.489-1.078l0.052-0.016c-0.034-0.105-0.067-0.213-0.111-0.315-0.478-1.102-1.669 0.102-2.245-0.201-0.116-0.061-0.2-0.185-0.23-0.311-0.039-0.168 0.006-0.276 0.097-0.415 0.309-0.472 0.889-0.591 1.405-0.689zM44.358 15.645c-0.351 0.096-1.009 0.203-1.219 0.521-0.068 0.104-0.074 0.24-0.030 0.355 0.031 0.081 0.092 0.151 0.146 0.218 0.363 0.024 0.59-0.002 0.867-0.254 0.168-0.153 0.322-0.4 0.314-0.637-0.002-0.059-0.019-0.119-0.032-0.176l-0.047-0.027z"></path>
<path d="M29.015 13.649c0.126-0.399 1.104-2.311 1.416-2.49 0.162-0.093 1.026-0.107 1.2-0.028 0.111 0.051 0.123 0.081 0.174 0.185-0.089 0.495-1.182 2.155-1.506 2.697l-0.568 0.945c0.002 0.568 0.102 2.301-0.096 2.712-0.070 0.053-0.119 0.083-0.206 0.103-0.267 0.062-0.797 0.044-1.033-0.104-0.182-0.24-0.087-2.23-0.087-2.67-0.29-0.464-2.165-3.457-2.115-3.743 0.062-0.089 0.102-0.111 0.202-0.151 0.316-0.009 0.959-0.093 1.221 0.066 0.339 0.206 1.271 2.058 1.397 2.478z"></path>
<path d="M52.226 11.104c0.332-0.009 0.874-0.091 1.16 0.080 0.080 0.546 0.049 1.124 0.050 1.675l0.003 2.551c0 0.666 0.073 1.468-0.013 2.122-0.017 0.13-0.097 0.173-0.192 0.247-0.346 0.011-0.877 0.097-1.161-0.128-0.067-0.255-0.109-6.145-0.045-6.378 0.031-0.11 0.103-0.123 0.196-0.17z"></path>
<path d="M12.912 20.312c0.457 0.163 0.918 0.293 1.398 0.371 0.827 0.134 1.787 0.095 2.53 0.525 0.549 0.318 1.11 1.063 1.265 1.681 0.028 0.113 0.020 0.123-0.038 0.217-0.574 0.207-1.132 0.158-1.703-0.029-1.376-0.45-2.778-1.453-3.452-2.764z"></path>
<path d="M12.653 20.314c0.029-0.003 0.057 0.013 0.085 0.021-0.001 0.013-0.001 0.027-0.004 0.040-0.071 0.293-1.203 1.487-1.465 1.694-0.904 0.714-2.246 1.28-3.412 1.141-0.031-0.007-0.074-0.015-0.103-0.028-0.063-0.029-0.103-0.052-0.119-0.12-0.044-0.182 0.059-0.394 0.142-0.552 0.267-0.511 0.685-1.11 1.209-1.386 0.646-0.34 1.6-0.338 2.317-0.466 0.46-0.082 0.903-0.206 1.349-0.343z"></path>
</symbol>
</defs>
</svg>
