<svg aria-hidden="true" style="position: absolute; width: 0; height: 0; overflow: hidden;" version="1.1" xmlns="http://www.w3.org/2000/svg" xmlns:xlink="http://www.w3.org/1999/xlink">
<defs>
<symbol id="icon-youtube" viewBox="0 0 45 32">
<path d="M42.865 5.963c-0.243-0.902-0.718-1.724-1.377-2.385s-1.481-1.138-2.382-1.383c-3.341-0.917-16.706-0.932-16.706-0.932s-13.363-0.015-16.706 0.862c-0.9 0.256-1.72 0.74-2.38 1.404s-1.138 1.487-1.388 2.389c-0.881 3.341-0.89 10.27-0.89 10.27s-0.009 6.963 0.866 10.27c0.491 1.828 1.931 3.273 3.761 3.765 3.375 0.917 16.704 0.932 16.704 0.932s13.365 0.015 16.706-0.86c0.901-0.245 1.723-0.72 2.384-1.38s1.139-1.481 1.385-2.381c0.883-3.339 0.89-10.266 0.89-10.266s0.043-6.965-0.868-10.306zM18.125 22.608l0.011-12.8 11.108 6.411-11.119 6.389z"></path>
</symbol>
<symbol id="icon-link" viewBox="0 0 30 32">
<path d="M2.526 0.409c-1.395 0-2.526 1.131-2.526 2.526v25.263c0 1.395 1.131 2.526 2.526 2.526h25.263c1.395 0 2.526-1.131 2.526-2.526v-25.263c0-1.395-1.131-2.526-2.526-2.526h-25.263zM9.298 7.15c0.009 1.611-1.196 2.603-2.627 2.596-1.348-0.007-2.522-1.080-2.515-2.593 0.007-1.423 1.132-2.567 2.593-2.534 1.483 0.033 2.558 1.12 2.548 2.532zM15.629 11.797h-4.247v14.417h4.486v-0.336c0-0.64-0.001-1.28-0.001-1.92-0.001-1.707-0.003-3.417 0.006-5.124 0.002-0.414 0.021-0.845 0.128-1.241 0.4-1.478 1.729-2.432 3.212-2.198 0.952 0.149 1.582 0.701 1.847 1.599 0.164 0.561 0.237 1.165 0.244 1.75 0.019 1.764 0.017 3.529 0.014 5.293-0.001 0.623-0.002 1.246-0.002 1.869v0.306h4.5v-0.346c0-0.761-0-1.522-0.001-2.283-0.001-1.902-0.002-3.805 0.003-5.708 0.002-0.86-0.090-1.708-0.301-2.539-0.315-1.236-0.966-2.26-2.025-2.998-0.751-0.526-1.575-0.864-2.496-0.902-0.105-0.004-0.211-0.010-0.317-0.016-0.471-0.025-0.95-0.051-1.4 0.040-1.288 0.258-2.42 0.848-3.275 1.888-0.099 0.119-0.197 0.24-0.342 0.421l-0.033 0.041v-2.011zM4.516 26.218h4.464v-14.412h-4.464v14.412z"></path>
</symbol>
<symbol id="icon-inst" viewBox="0 0 30 32">
<path d="M21.895 0.409h-13.474c-4.651 0-8.421 3.77-8.421 8.421v13.474c0 4.651 3.77 8.421 8.421 8.421h13.474c4.651 0 8.421-3.77 8.421-8.421v-13.474c0-4.651-3.77-8.421-8.421-8.421zM27.368 22.303c-0.009 3.019-2.455 5.464-5.474 5.474h-13.474c-3.019-0.009-5.464-2.455-5.474-5.474v-13.474c0.009-3.019 2.454-5.464 5.474-5.474h13.474c3.019 0.009 5.464 2.454 5.474 5.474v13.474zM23.158 9.251c0.93 0 1.684-0.754 1.684-1.684s-0.754-1.684-1.684-1.684c-0.93 0-1.684 0.754-1.684 1.684s0.754 1.684 1.684 1.684zM15.158 7.988c-4.186 0-7.579 3.393-7.579 7.579s3.393 7.579 7.579 7.579c4.186 0 7.579-3.393 7.579-7.579 0.005-2.011-0.793-3.942-2.215-5.364s-3.353-2.219-5.364-2.215zM10.526 15.567c0 2.558 2.074 4.632 4.632 4.632s4.632-2.074 4.632-4.632c0-2.558-2.074-4.632-4.632-4.632s-4.632 2.074-4.632 4.632z"></path>
</symbol>
<symbol id="icon-fb" viewBox="0 0 30 32">
<path d="M30.476 15.701c0-8.467-6.822-15.331-15.238-15.331s-15.238 6.864-15.238 15.331c0 7.652 5.572 13.995 12.857 15.145v-10.713h-3.869v-4.432h3.869v-3.378c0-3.842 2.275-5.965 5.756-5.965 1.667 0 3.411 0.299 3.411 0.299v3.773h-1.921c-1.893 0-2.483 1.182-2.483 2.394v2.876h4.226l-0.675 4.432h-3.551v10.713c7.285-1.15 12.857-7.493 12.857-15.145z"></path>
</symbol>
<symbol id="icon-check" viewBox="0 0 31 32">
<path d="M26.045 10.322 12.477 23.89a.64.64 0 0 1-.908 0L4.67 16.991a.64.64 0 0 1 0-.908l.896-.896a.64.64 0 0 1 .908 0l5.542 5.542L24.24 8.505a.654.654 0 0 1 .909 0l.896.909a.64.64 0 0 1 0 .908z"/>
</symbol>
        <symbol id="icon-menu" viewBox="0 0 32 32">
            <path
                d="M5.333 8h21.333v2.667H5.333V8zm0 6.667h21.333v2.667H5.333v-2.667zm0 6.666h21.333V24H5.333v-2.667z" />
        </symbol>
        <symbol id="icon-close" viewBox="0 0 32 32">
            <path
                d="m21.589 8.459-5.657 5.656-5.656-5.656-1.885 1.885L14.047 16l-5.656 5.656 1.885 1.885 5.656-5.656 5.657 5.656 1.885-1.885L17.818 16l5.656-5.656-1.885-1.885z" />
        </symbol>
        <symbol id="icon-company-logo" viewBox="0 0 75 32">
            <path
                d="M13.131 2.542c.332.165.705.638.955.918 2.148 2.4 3.275 5.457 3.076 8.674-.193 3.114-1.731 5.879-4.039 7.922-.437-.299-.837-.724-1.187-1.119-1.961-2.218-3.035-5.333-2.848-8.289.193-3.047 1.751-6.097 4.042-8.106z" />
            <path
                d="M22.274 6.9c.006.011.014.021.019.032.122.249.158.644.189.92.162 1.437.028 2.878-.478 4.239-1.263 3.4-4.182 5.902-7.409 7.385-.038 0-.013.003-.071-.031.197-.323.472-.611.7-.914.348-.473.663-.97.944-1.485.989-1.819 1.461-3.82 1.46-5.883 0-.586-.014-1.171-.183-1.737.303-.336.674-.619 1.034-.891 1.16-.878 2.329-1.489 3.796-1.635zm-18.327.014c.174.007.35.029.522.056 1.326.202 2.486.908 3.521 1.725.289.228.605.466.823.765-.551 2.829.18 5.795 1.642 8.242.234.389.486.766.756 1.131.129.174.283.331.398.514l-.041.053c-2.412-1.031-4.671-2.857-6.125-5.038-1.525-2.289-2.029-4.754-1.498-7.447z" />
            <path
                d="M24.633 13.227c.385-.046 1.246-.094 1.569.111.016.048.021.053.023.112.006.226-.141.563-.217.774a8.993 8.993 0 0 1-2.543 3.766c-2.263 2.001-5.196 2.719-8.159 2.528-.56-.058-1.136-.097-1.674-.269 2.482-.763 4.843-2.323 6.554-4.271.421-.479.729-1.035 1.138-1.516.777-.914 2.185-1.156 3.311-1.235zm-23.711.076c1.157-.136 2.726.054 3.679.774.566.428.908 1.223 1.376 1.765a14.636 14.636 0 0 0 5.359 3.907c.439.188.891.384 1.355.498l-.928.155c-2.702.389-5.503-.094-7.815-1.597-1.575-1.024-2.683-2.428-3.335-4.18-.096-.257-.239-.536-.288-.803a.463.463 0 0 1 .088-.392c.145-.107.334-.106.509-.127zm47.195-2.335c.901-.007 1.883-.088 2.773.042.572.083 1.154.288 1.502.779.256.361.34.869.26 1.3-.097.528-.432.834-.856 1.118.102.043.202.09.299.142.375.203.64.554.749.964.15.56.03 1.136-.249 1.633a1.502 1.502 0 0 1-.22.258c-.855.811-2.729.654-3.833.643-.213-.002-.493.017-.651-.144a.53.53 0 0 1-.059-.226c-.073-1.186-.007-2.417-.007-3.608 0-.843-.085-1.94.025-2.755.085-.106.139-.106.267-.145zm3.018 4.172c-.477-.311-1.28-.221-1.834-.22l.002 1.537c.614.004 1.331.099 1.875-.23.128-.189.257-.47.22-.705a.54.54 0 0 0-.262-.382zm-.228-2.734c-.455-.274-1.094-.204-1.606-.201v1.476c.549.004 1.204.085 1.684-.225.129-.185.254-.45.205-.683-.036-.171-.137-.279-.283-.366zm-11.187.159a1.53 1.53 0 0 1 .411.022c.412.083.613.386.833.709.013-.113.021-.235.048-.345a.345.345 0 0 1 .194-.241c.166-.089.524-.094.698-.03.127.047.269.158.312.291.13.394.079 4.247.004 4.774-.049.347-.157.69-.332.994-.282.491-.763.811-1.303.957-.761.206-1.627.14-2.306-.269-.303-.182-.445-.417-.525-.755.026-.122.056-.241.161-.32.34-.257 1.075.174 1.453.245.325.06.676.027.946-.177.446-.336.519-.957.595-1.47-.298.319-.582.575-1.022.683a1.797 1.797 0 0 1-1.409-.235c-.54-.358-.841-.972-.951-1.595-.135-.759-.017-1.666.443-2.301.439-.605 1.042-.828 1.751-.937zm.081 1.162c-.355.134-.551.298-.703.652-.187.435-.193 1.065-.01 1.501.097.23.291.472.535.555.161.054.356.031.522.019.292-.104.459-.228.597-.511.213-.436.22-1.051.057-1.506-.094-.265-.281-.525-.546-.639a1.057 1.057 0 0 0-.452-.07zm29.402-1.121c.349-.046.692-.031 1.021.106.455.188.691.531.871.969.092-.231.194-.464.357-.656.258-.304.596-.425.988-.44.451-.017.913.086 1.244.41.217.213.351.498.424.791.194.778.085 2.451.088 3.331 0 .135.017.56-.088.64-.179.135-.814.105-1.037.074-.13-.018-.211-.088-.265-.207-.083-.182-.038-.507-.036-.708.009-.653.169-2.456-.217-2.932a.502.502 0 0 0-.356-.188c-.208-.015-.472.057-.624.205-.535.524-.358 2.389-.353 3.122.001.148.007.31-.012.457-.008.065-.031.14-.09.174-.228.131-.783.111-1.035.052-.131-.031-.187-.075-.234-.202-.078-.211-.034-.523-.03-.746.012-.654.167-2.28-.166-2.77a.619.619 0 0 0-.423-.265c-.199-.032-.406-.006-.568.122-.651.514-.473 2.314-.47 3.058.001.179.037.435-.004.602-.017.07-.037.112-.097.152-.209.137-.776.108-1.027.058-.105-.021-.172-.085-.218-.181-.064-.136-.083-4.047-.059-4.435a.841.841 0 0 1 .078-.32.495.495 0 0 1 .301-.248c.31-.1.696.011.97.163.066.244.019.564.008.819l.098-.194c.242-.467.469-.657.962-.814zm-5.629.021a2.633 2.633 0 1 1 .11 5.264 2.633 2.633 0 0 1-.11-5.264zm-.177 1.144c-.387.172-.597.369-.747.774-.179.484-.15 1.159.079 1.621.124.249.316.451.583.54a.954.954 0 0 0 .542.027c.371-.155.593-.353.746-.733.191-.477.189-1.114-.03-1.581a1.148 1.148 0 0 0-.695-.626c-.153-.045-.319-.035-.477-.021zm-28.993-1.137a2.63 2.63 0 0 1 .245 5.256 2.63 2.63 0 1 1-.245-5.256zm.41 1.172a1.136 1.136 0 0 0-.515-.035c-.388.192-.61.392-.759.817-.168.481-.143 1.167.099 1.618.132.246.331.426.601.509.165.051.353.055.521.015.37-.154.587-.353.736-.733a2.14 2.14 0 0 0-.045-1.587 1.115 1.115 0 0 0-.638-.604zm22.864-1.143a2.63 2.63 0 0 1 2.864 3.564 2.63 2.63 0 1 1-2.864-3.565zm.214 1.106c-.39.166-.614.354-.772.758-.185.473-.167 1.129.052 1.589.132.277.357.505.654.6.149.048.317.047.471.028.389-.164.615-.348.776-.752.187-.469.184-1.117-.034-1.575a1.152 1.152 0 0 0-.638-.604 1.233 1.233 0 0 0-.509-.043zm-13.356-1.16c.329-.039.646-.033.971.043.492.114.905.4 1.156.842.134.236.212.496.249.765.057.415.09 3.039-.004 3.4a.424.424 0 0 1-.282.164c-.21.045-.672.072-.842-.086-.149-.137-.118-.424-.12-.609-.247.365-.495.659-.944.771-.501.125-.966-.022-1.398-.271-.184-.169-.324-.343-.403-.583-.133-.406-.09-.953.117-1.326.504-.906 1.69-.852 2.558-1.108l.054-.016c-.035-.108-.069-.219-.114-.324-.491-1.132-1.715.105-2.307-.207a.491.491 0 0 1-.236-.319c-.041-.172.006-.283.1-.426.318-.485.914-.607 1.444-.708zm1.055 3.025c-.361.099-1.038.208-1.253.536a.406.406 0 0 0-.03.365c.032.083.095.156.15.224.373.025.607-.002.892-.261.173-.158.331-.411.323-.655-.002-.061-.019-.122-.033-.181l-.049-.028zm-15.77-2.051c.129-.411 1.135-2.375 1.455-2.559.166-.096 1.055-.11 1.233-.029.114.052.127.083.179.19-.091.509-1.215 2.215-1.547 2.772l-.584.971c.002.584.105 2.365-.099 2.788a.49.49 0 0 1-.211.106c-.274.064-.82.045-1.061-.107-.187-.246-.089-2.291-.089-2.744-.299-.477-2.225-3.553-2.174-3.847.064-.092.105-.114.208-.155.325-.01.986-.096 1.255.067.349.212 1.307 2.115 1.436 2.547zm23.856-2.615c.341-.009.898-.094 1.193.082.083.561.05 1.156.052 1.722l.003 2.622c0 .685.075 1.509-.013 2.181-.017.134-.1.177-.197.254-.355.012-.901.1-1.193-.131-.069-.262-.112-6.316-.046-6.555.032-.113.106-.126.202-.175zM13.27 20.431c.47.167.943.301 1.436.381.85.138 1.837.097 2.6.54.564.327 1.141 1.092 1.3 1.727.029.116.021.126-.039.223-.59.213-1.163.162-1.75-.03-1.414-.462-2.856-1.493-3.548-2.841zm-.266.003c.03-.003.058.013.087.021-.002.013-.001.027-.004.041-.073.301-1.237 1.528-1.506 1.741-.929.733-2.308 1.316-3.507 1.173-.032-.007-.077-.016-.106-.029-.065-.03-.105-.054-.122-.123-.045-.187.061-.405.146-.568.275-.525.704-1.141 1.243-1.424.664-.349 1.644-.348 2.382-.479a11.77 11.77 0 0 0 1.386-.352z" />
        </symbol>
</defs>
</svg>
