<svg aria-hidden="true" style="position: absolute; width: 0; height: 0; overflow: hidden;" version="1.1" xmlns="http://www.w3.org/2000/svg" xmlns:xlink="http://www.w3.org/1999/xlink">
<defs>
<symbol id="icon-youtube" viewBox="0 0 45 32">
<path d="M42.865 5.963c-0.243-0.902-0.718-1.724-1.377-2.385s-1.481-1.138-2.382-1.383c-3.341-0.917-16.706-0.932-16.706-0.932s-13.363-0.015-16.706 0.862c-0.9 0.256-1.72 0.74-2.38 1.404s-1.138 1.487-1.388 2.389c-0.881 3.341-0.89 10.27-0.89 10.27s-0.009 6.963 0.866 10.27c0.491 1.828 1.931 3.273 3.761 3.765 3.375 0.917 16.704 0.932 16.704 0.932s13.365 0.015 16.706-0.86c0.901-0.245 1.723-0.72 2.384-1.38s1.139-1.481 1.385-2.381c0.883-3.339 0.89-10.266 0.89-10.266s0.043-6.965-0.868-10.306zM18.125 22.608l0.011-12.8 11.108 6.411-11.119 6.389z"></path>
</symbol>
<symbol id="icon-link" viewBox="0 0 30 32">
<path d="M2.526 0.409c-1.395 0-2.526 1.131-2.526 2.526v25.263c0 1.395 1.131 2.526 2.526 2.526h25.263c1.395 0 2.526-1.131 2.526-2.526v-25.263c0-1.395-1.131-2.526-2.526-2.526h-25.263zM9.298 7.15c0.009 1.611-1.196 2.603-2.627 2.596-1.348-0.007-2.522-1.080-2.515-2.593 0.007-1.423 1.132-2.567 2.593-2.534 1.483 0.033 2.558 1.12 2.548 2.532zM15.629 11.797h-4.247v14.417h4.486v-0.336c0-0.64-0.001-1.28-0.001-1.92-0.001-1.707-0.003-3.417 0.006-5.124 0.002-0.414 0.021-0.845 0.128-1.241 0.4-1.478 1.729-2.432 3.212-2.198 0.952 0.149 1.582 0.701 1.847 1.599 0.164 0.561 0.237 1.165 0.244 1.75 0.019 1.764 0.017 3.529 0.014 5.293-0.001 0.623-0.002 1.246-0.002 1.869v0.306h4.5v-0.346c0-0.761-0-1.522-0.001-2.283-0.001-1.902-0.002-3.805 0.003-5.708 0.002-0.86-0.090-1.708-0.301-2.539-0.315-1.236-0.966-2.26-2.025-2.998-0.751-0.526-1.575-0.864-2.496-0.902-0.105-0.004-0.211-0.010-0.317-0.016-0.471-0.025-0.95-0.051-1.4 0.040-1.288 0.258-2.42 0.848-3.275 1.888-0.099 0.119-0.197 0.24-0.342 0.421l-0.033 0.041v-2.011zM4.516 26.218h4.464v-14.412h-4.464v14.412z"></path>
</symbol>
<symbol id="icon-inst" viewBox="0 0 30 32">
<path d="M21.895 0.409h-13.474c-4.651 0-8.421 3.77-8.421 8.421v13.474c0 4.651 3.77 8.421 8.421 8.421h13.474c4.651 0 8.421-3.77 8.421-8.421v-13.474c0-4.651-3.77-8.421-8.421-8.421zM27.368 22.303c-0.009 3.019-2.455 5.464-5.474 5.474h-13.474c-3.019-0.009-5.464-2.455-5.474-5.474v-13.474c0.009-3.019 2.454-5.464 5.474-5.474h13.474c3.019 0.009 5.464 2.454 5.474 5.474v13.474zM23.158 9.251c0.93 0 1.684-0.754 1.684-1.684s-0.754-1.684-1.684-1.684c-0.93 0-1.684 0.754-1.684 1.684s0.754 1.684 1.684 1.684zM15.158 7.988c-4.186 0-7.579 3.393-7.579 7.579s3.393 7.579 7.579 7.579c4.186 0 7.579-3.393 7.579-7.579 0.005-2.011-0.793-3.942-2.215-5.364s-3.353-2.219-5.364-2.215zM10.526 15.567c0 2.558 2.074 4.632 4.632 4.632s4.632-2.074 4.632-4.632c0-2.558-2.074-4.632-4.632-4.632s-4.632 2.074-4.632 4.632z"></path>
</symbol>
<symbol id="icon-fb" viewBox="0 0 30 32">
<path d="M30.476 15.701c0-8.467-6.822-15.331-15.238-15.331s-15.238 6.864-15.238 15.331c0 7.652 5.572 13.995 12.857 15.145v-10.713h-3.869v-4.432h3.869v-3.378c0-3.842 2.275-5.965 5.756-5.965 1.667 0 3.411 0.299 3.411 0.299v3.773h-1.921c-1.893 0-2.483 1.182-2.483 2.394v2.876h4.226l-0.675 4.432h-3.551v10.713c7.285-1.15 12.857-7.493 12.857-15.145z"></path>
</symbol>
<symbol width="24" height="24" viewbox="0 0 24 24" fill="none" xmlns="http://www.w3.org/2000/svg" id="Facebook">
<path d="M22 12.3038C22 6.74719 17.5229 2.24268 12 2.24268C6.47715 2.24268 2 6.74719 2 12.3038C2 17.3255 5.65684 21.4879 10.4375 22.2427V15.2121H7.89844V12.3038H10.4375V10.0872C10.4375 7.56564 11.9305 6.1728 14.2146 6.1728C15.3088 6.1728 16.4531 6.36931 16.4531 6.36931V8.84529H15.1922C13.95 8.84529 13.5625 9.6209 13.5625 10.4166V12.3038H16.3359L15.8926 15.2121H13.5625V22.2427C18.3432 21.4879 22 17.3257 22 12.3038Z" fill="#0D0B0A"></path>
</symbol>
<symbol width="24" height="24" viewbox="0 0 24 24" fill="none" xmlns="http://www.w3.org/2000/svg" id="LinkedIn">
<path fill-rule="evenodd" clip-rule="evenodd" d="M4.5 3.24268C3.67157 3.24268 3 3.91425 3 4.74268V19.7427C3 20.5711 3.67157 21.2427 4.5 21.2427H19.5C20.3284 21.2427 21 20.5711 21 19.7427V4.74268C21 3.91425 20.3284 3.24268 19.5 3.24268H4.5ZM8.52076 7.2454C8.52639 8.20165 7.81061 8.79087 6.96123 8.78665C6.16107 8.78243 5.46357 8.1454 5.46779 7.24681C5.47201 6.40165 6.13998 5.72243 7.00764 5.74212C7.88795 5.76181 8.52639 6.40728 8.52076 7.2454ZM12.2797 10.0044H9.75971H9.7583V18.5643H12.4217V18.3646C12.4217 17.9847 12.4214 17.6047 12.4211 17.2246C12.4203 16.2108 12.4194 15.1959 12.4246 14.1824C12.426 13.9363 12.4372 13.6804 12.5005 13.4455C12.7381 12.568 13.5271 12.0013 14.4074 12.1406C14.9727 12.2291 15.3467 12.5568 15.5042 13.0898C15.6013 13.423 15.6449 13.7816 15.6491 14.129C15.6605 15.1766 15.6589 16.2242 15.6573 17.2719C15.6567 17.6417 15.6561 18.0117 15.6561 18.3815V18.5629H18.328V18.3576C18.328 17.9056 18.3278 17.4537 18.3275 17.0018C18.327 15.8723 18.3264 14.7428 18.3294 13.6129C18.3308 13.1024 18.276 12.599 18.1508 12.1054C17.9638 11.3713 17.5771 10.7638 16.9485 10.3251C16.5027 10.0129 16.0133 9.81178 15.4663 9.78928C15.404 9.78669 15.3412 9.7833 15.2781 9.77989C14.9984 9.76477 14.7141 9.74941 14.4467 9.80334C13.6817 9.95662 13.0096 10.3068 12.5019 10.9241C12.4429 10.9949 12.3852 11.0668 12.2991 11.1741L12.2797 11.1984V10.0044ZM5.68164 18.5671H8.33242V10.01H5.68164V18.5671Z" fill="#0D0B0A"></path>
</symbol>
<symbol width="24" height="24" viewbox="0 0 24 24" fill="none" xmlns="http://www.w3.org/2000/svg" id="Instagram">
<path fill-rule="evenodd" clip-rule="evenodd" d="M16 3.24268H8C5.23858 3.24268 3 5.48126 3 8.24268V16.2427C3 19.0041 5.23858 21.2427 8 21.2427H16C18.7614 21.2427 21 19.0041 21 16.2427V8.24268C21 5.48126 18.7614 3.24268 16 3.24268ZM19.25 16.2427C19.2445 18.0353 17.7926 19.4872 16 19.4927H8C6.20735 19.4872 4.75549 18.0353 4.75 16.2427V8.24268C4.75549 6.45003 6.20735 4.99817 8 4.99268H16C17.7926 4.99817 19.2445 6.45003 19.25 8.24268V16.2427ZM16.75 8.49268C17.3023 8.49268 17.75 8.04496 17.75 7.49268C17.75 6.9404 17.3023 6.49268 16.75 6.49268C16.1977 6.49268 15.75 6.9404 15.75 7.49268C15.75 8.04496 16.1977 8.49268 16.75 8.49268ZM12 7.74268C9.51472 7.74268 7.5 9.7574 7.5 12.2427C7.5 14.728 9.51472 16.7427 12 16.7427C14.4853 16.7427 16.5 14.728 16.5 12.2427C16.5027 11.0484 16.0294 9.90225 15.1849 9.05776C14.3404 8.21327 13.1943 7.74002 12 7.74268ZM9.25 12.2427C9.25 13.7615 10.4812 14.9927 12 14.9927C13.5188 14.9927 14.75 13.7615 14.75 12.2427C14.75 10.7239 13.5188 9.49268 12 9.49268C10.4812 9.49268 9.25 10.7239 9.25 12.2427Z" fill="#0D0B0A"></path>
</symbol>

</defs>
</svg>
