<svg width="84" height="25" viewBox="0 0 84 25" fill="none" xmlns="http://www.w3.org/2000/svg">
<g clip-path="url(#clip0_10237_17)">
<path d="M14.7721 0.859894C15.1453 1.04525 15.565 1.57755 15.8467 1.8923C18.2636 4.59225 19.5314 8.03105 19.3072 11.6509C19.0901 15.1538 17.3602 18.2642 14.7637 20.563C14.272 20.2269 13.8221 19.7485 13.4287 19.3038C11.2229 16.8091 10.0139 13.3041 10.2245 9.97885C10.4417 6.55047 12.1942 3.12 14.7721 0.859894Z" fill="#0D0B0A"/>
<path d="M25.0582 5.76266C25.0653 5.77479 25.0735 5.78644 25.0797 5.7991C25.2172 6.07921 25.257 6.52363 25.2919 6.83453C25.4736 8.45131 25.3232 10.0723 24.7546 11.6031C23.334 15.4276 20.0503 18.2428 16.4197 19.9117C16.3769 19.9112 16.4056 19.9146 16.3403 19.8766C16.5622 19.5137 16.8716 19.1893 17.1276 18.8483C17.5191 18.3158 17.8739 17.7576 18.1894 17.1774C19.3015 15.1309 19.8334 12.8803 19.8317 10.5592C19.8313 9.90003 19.8162 9.24156 19.6254 8.60535C19.9659 8.22747 20.3831 7.90897 20.7881 7.60251C22.0932 6.61483 23.4082 5.92747 25.0582 5.76266Z" fill="#0D0B0A"/>
<path d="M4.44035 5.77867C4.63628 5.78622 4.83396 5.81165 5.02774 5.84113C6.51914 6.06804 7.82405 6.86223 8.98911 7.78137C9.31427 8.0379 9.67004 8.30539 9.91488 8.6425C9.29542 11.825 10.117 15.162 11.7626 17.9144C12.0254 18.3519 12.3093 18.7762 12.6134 19.1863C12.7585 19.3817 12.9313 19.559 13.0615 19.7641L13.0154 19.824C10.3021 18.6636 7.76028 16.6103 6.12513 14.1561C4.4097 11.5811 3.84247 8.80739 4.44035 5.77867Z" fill="#0D0B0A"/>
<path d="M27.7125 12.8808C28.1451 12.8291 29.1147 12.7746 29.4773 13.0055C29.4956 13.06 29.5011 13.0654 29.503 13.1317C29.5102 13.3855 29.3444 13.7654 29.2584 14.0022C28.683 15.6361 27.6978 17.0951 26.3972 18.2394C23.8513 20.4905 20.5513 21.2981 17.2185 21.0838C16.589 21.018 15.94 20.9742 15.335 20.7813C18.1273 19.9224 20.7835 18.1678 22.708 15.9766C23.1811 15.4378 23.5279 14.8123 23.9882 14.2706C24.8618 13.2422 26.4459 12.9704 27.7125 12.8808Z" fill="#0D0B0A"/>
<path d="M1.03684 12.966C2.3381 12.8126 4.1038 13.0269 5.17562 13.837C5.81285 14.3188 6.19686 15.2132 6.72352 15.8221C8.37045 17.7293 10.4332 19.2331 12.7528 20.2176C13.2467 20.4291 13.7552 20.6497 14.2775 20.7783L13.2335 20.9528C10.1933 21.3902 7.04279 20.847 4.44149 19.1557C2.67004 18.0036 1.42275 16.4238 0.689454 14.4533C0.581795 14.1644 0.420648 13.8507 0.3656 13.5496C0.333449 13.3738 0.361752 13.2578 0.46449 13.1087C0.628025 12.9884 0.840615 12.9899 1.03684 12.966Z" fill="#0D0B0A"/>
<path d="M14.929 20.9844C15.4579 21.1725 15.9901 21.323 16.5449 21.4131C17.5008 21.568 18.6113 21.5227 19.4701 22.0206C20.1042 22.3884 20.7536 23.2496 20.9329 23.9638C20.9657 24.0948 20.9562 24.1056 20.8891 24.2142C20.2254 24.4534 19.5807 24.3964 18.9203 24.1801C17.3294 23.6598 15.7077 22.5004 14.929 20.9844Z" fill="#0D0B0A"/>
<path d="M14.6297 20.9883C14.6632 20.9854 14.6954 21.0029 14.7279 21.0122C14.7262 21.0273 14.7265 21.0429 14.7229 21.058C14.6412 21.3965 13.3315 22.7771 13.0291 23.0163C11.984 23.8415 10.4323 24.4967 9.08407 24.3355C9.04802 24.3277 8.99794 24.3179 8.96511 24.3028C8.89252 24.2692 8.84654 24.2424 8.82739 24.164C8.77629 23.9531 8.89618 23.7085 8.99205 23.5253C9.3009 22.9349 9.78453 22.2422 10.3904 21.9231C11.1373 21.5305 12.2401 21.532 13.0701 21.3843C13.6018 21.2898 14.1142 21.1456 14.6297 20.9883Z" fill="#0D0B0A"/>
</g>
<defs>
<clipPath id="clip0_10237_17">
<rect width="83.147" height="23.5097" fill="white" transform="translate(0.353027 0.859894)"/>
</clipPath>
</defs>
</svg>
